<?xml version="1.0" encoding="UTF-8" standalone="no"?>
<svg
   width="420.61639"
   height="279.55917"
   viewBox="-211.80345 127.15007 285.9968 190.08539"
   class="css-np3qrs"
   version="1.1"
   id="svg41"
   sodipodi:docname="logo.svg"
   inkscape:version="1.1.2 (b8e25be833, 2022-02-05)"
   xmlns:inkscape="http://www.inkscape.org/namespaces/inkscape"
   xmlns:sodipodi="http://sodipodi.sourceforge.net/DTD/sodipodi-0.dtd"
   xmlns="http://www.w3.org/2000/svg"
   xmlns:svg="http://www.w3.org/2000/svg">
  <sodipodi:namedview
     id="namedview43"
     pagecolor="#505050"
     bordercolor="#ffffff"
     borderopacity="1"
     inkscape:pageshadow="0"
     inkscape:pageopacity="0"
     inkscape:pagecheckerboard="1"
     showgrid="false"
     fit-margin-top="0"
     fit-margin-left="0"
     fit-margin-right="0"
     fit-margin-bottom="0"
     inkscape:zoom="0.82412793"
     inkscape:cx="458.05995"
     inkscape:cy="143.18165"
     inkscape:window-width="1920"
     inkscape:window-height="1017"
     inkscape:window-x="-8"
     inkscape:window-y="-8"
     inkscape:window-maximized="1"
     inkscape:current-layer="_3RU9k16cN8bfp9B4d4Fgx" />
  <style
     id="style2">#editor_emi7n39al_1 ._sw1{stroke-width:0.6799468791500664}#editor_emi7n39al_1 ._sw2{stroke-width:1.3598937583001327}#editor_emi7n39al_1 ._sd{stroke-dasharray:6.799 3.400}</style>
  <defs
     id="defs15">
    <pattern
       id="o_emi7n39al_2"
       x="0"
       y="0"
       width="21.758300132802123"
       height="21.758300132802123"
       patternUnits="userSpaceOnUse"
       class="css-1e1xezv">
      <rect
         x="0"
         y="0"
         width="21.758300132802123"
         height="21.758300132802123"
         id="rect4" />
      <circle
         cx="0"
         cy="0"
         r="1.0199203187250996"
         id="circle6" />
      <circle
         cx="21.758300132802123"
         cy="0"
         r="1.0199203187250996"
         id="circle8" />
      <circle
         cx="21.758300132802123"
         cy="21.758300132802123"
         r="1.0199203187250996"
         id="circle10" />
      <circle
         cx="0"
         cy="21.758300132802123"
         r="1.0199203187250996"
         id="circle12" />
    </pattern>
  </defs>
  <svg
     width="512"
     height="512"
     style="overflow:visible"
     viewBox="0 0 512 512"
     data-svgdocument=""
     id="_3RU9k16cN8bfp9B4d4Fgx"
     class="fl-svgdocument"
     x="0"
     y="0"
     overflow="hidden"
     version="1.1"
     transform="translate(-324.856,-33.807242)">
    <defs
       id="_dhVCjuczCCrAmCCA_SYw0"
       transform="matrix(1.4085428714752197, 0, 0, 1.4085428714752197, -52.79993438720703, 132.19740295410156)"
       data-uid="o_emi7n39al_4" />
    <g
       id="_yP62ir-wGap6p08gs6QTb"
       transform="matrix(0.89490765,0,0,0.89490765,26.792547,18.991899)"
       data-uid="o_emi7n39al_5">
      <path
         id="_HABgh5fuONyxEWYtI3Aqn"
         d="m 140.352,124.702 c 0.01,-1.373 -0.057,-3.07 -0.259,-5.125 -0.005,-0.055 -0.011,-0.107 -0.017,-0.16 C 138.578,104.558 129.961,71.157 91.548,5.36 L 88.377,0 86.949,2.414 c -39.883,67.75 -48.735,101.923 -50.256,117.003 -0.006,0.053 -0.011,0.105 -0.016,0.16 -0.202,2.055 -0.269,3.752 -0.259,5.125 0,0.033 -0.002,0.064 -0.002,0.098 0,0.074 0.005,0.146 0.005,0.219 0.003,0.217 0.009,0.426 0.016,0.625 0.453,28.311 23.53,51.125 51.948,51.125 28.418,0 51.495,-22.814 51.947,-51.125 0.008,-0.199 0.014,-0.408 0.017,-0.625 0,-0.072 0.005,-0.145 0.005,-0.219 0,-0.034 -0.002,-0.065 -0.002,-0.098 z"
         fill="#e78200"
         transform="matrix(0.44756746,0.20863618,-0.20863618,0.44756746,208.37631,271.08014)"
         data-uid="o_emi7n39al_6"
         style="fill:#3ea758;fill-opacity:1" />
      <path
         id="_FuQlcRBGDjpvh1A4tlxBI"
         d="m 140.352,124.702 c 0.01,-1.373 -0.057,-3.07 -0.259,-5.125 -0.005,-0.055 -0.011,-0.107 -0.017,-0.16 C 138.578,104.558 129.961,71.157 91.548,5.36 L 88.377,0 86.949,2.414 c -39.883,67.75 -48.735,101.923 -50.256,117.003 -0.006,0.053 -0.011,0.105 -0.016,0.16 -0.202,2.055 -0.269,3.752 -0.259,5.125 0,0.033 -0.002,0.064 -0.002,0.098 0,0.074 0.005,0.146 0.005,0.219 0.003,0.217 0.009,0.426 0.016,0.625 0.453,28.311 23.53,51.125 51.948,51.125 28.418,0 51.495,-22.814 51.947,-51.125 0.008,-0.199 0.014,-0.408 0.017,-0.625 0,-0.072 0.005,-0.145 0.005,-0.219 0,-0.034 -0.002,-0.065 -0.002,-0.098 z"
         fill="#e78200"
         transform="matrix(0.44756746,0.20863618,0.20863618,-0.44756746,228.23862,221.72095)"
         data-uid="o_emi7n39al_7"
         style="fill:#3ea758;fill-opacity:1" />
      <path
         id="_XPKDdg_wB8sWy8tvG4mpu"
         d="m 140.352,124.702 c 0.01,-1.373 -0.057,-3.07 -0.259,-5.125 -0.005,-0.055 -0.011,-0.107 -0.017,-0.16 C 138.578,104.558 129.961,71.157 91.548,5.36 L 88.377,0 86.949,2.414 c -39.883,67.75 -48.735,101.923 -50.256,117.003 -0.006,0.053 -0.011,0.105 -0.016,0.16 -0.202,2.055 -0.269,3.752 -0.259,5.125 0,0.033 -0.002,0.064 -0.002,0.098 0,0.074 0.005,0.146 0.005,0.219 0.003,0.217 0.009,0.426 0.016,0.625 0.453,28.311 23.53,51.125 51.948,51.125 28.418,0 51.495,-22.814 51.947,-51.125 0.008,-0.199 0.014,-0.408 0.017,-0.625 0,-0.072 0.005,-0.145 0.005,-0.219 0,-0.034 -0.002,-0.065 -0.002,-0.098 z"
         fill="#e78200"
         transform="matrix(-0.20091949,0.45114002,0.45114002,0.20091949,299.43454,237.95671)"
         data-uid="o_emi7n39al_8"
         style="fill:#3ea758;fill-opacity:1" />
      <path
         id="_N1S0JqAKJ3bMgLW3YF-QR"
         d="m 140.352,124.702 c 0.01,-1.373 -0.057,-3.07 -0.259,-5.125 -0.005,-0.055 -0.011,-0.107 -0.017,-0.16 C 138.578,104.558 129.961,71.157 91.548,5.36 L 88.377,0 86.949,2.414 c -39.883,67.75 -48.735,101.923 -50.256,117.003 -0.006,0.053 -0.011,0.105 -0.016,0.16 -0.202,2.055 -0.269,3.752 -0.259,5.125 0,0.033 -0.002,0.064 -0.002,0.098 0,0.074 0.005,0.146 0.005,0.219 0.003,0.217 0.009,0.426 0.016,0.625 0.453,28.311 23.53,51.125 51.948,51.125 28.418,0 51.495,-22.814 51.947,-51.125 0.008,-0.199 0.014,-0.408 0.017,-0.625 0,-0.072 0.005,-0.145 0.005,-0.219 0,-0.034 -0.002,-0.065 -0.002,-0.098 z"
         fill="#e78200"
         transform="matrix(-0.21649577,0.44385207,-0.44385207,-0.21649577,248.90947,220.70352)"
         data-uid="o_emi7n39al_9"
         style="fill:#3ea758;fill-opacity:1" />
      <path
         id="_sWEeoEI6o0zRG8GlbHvPu"
         d="m 140.352,124.702 c 0.01,-1.373 -0.057,-3.07 -0.259,-5.125 -0.005,-0.055 -0.011,-0.107 -0.017,-0.16 C 138.578,104.558 129.961,71.157 91.548,5.36 L 88.377,0 86.949,2.414 c -39.883,67.75 -48.735,101.923 -50.256,117.003 -0.006,0.053 -0.011,0.105 -0.016,0.16 -0.202,2.055 -0.269,3.752 -0.259,5.125 0,0.033 -0.002,0.064 -0.002,0.098 0,0.074 0.005,0.146 0.005,0.219 0.003,0.217 0.009,0.426 0.016,0.625 0.453,28.311 23.53,51.125 51.948,51.125 28.418,0 51.495,-22.814 51.947,-51.125 0.008,-0.199 0.014,-0.408 0.017,-0.625 0,-0.072 0.005,-0.145 0.005,-0.219 0,-0.034 -0.002,-0.065 -0.002,-0.098 z"
         fill="#e78200"
         transform="matrix(0.06945013,0.24236092,0.24236092,-0.06945013,299.84738,220.8345)"
         data-uid="o_emi7n39al_10"
         style="fill:#3ea758;fill-opacity:1" />
      <path
         id="_oJ5mRzRAk-BqZmIxumvVp"
         d="m 140.352,124.702 c 0.01,-1.373 -0.057,-3.07 -0.259,-5.125 -0.005,-0.055 -0.011,-0.107 -0.017,-0.16 C 138.578,104.558 129.961,71.157 91.548,5.36 L 88.377,0 86.949,2.414 c -39.883,67.75 -48.735,101.923 -50.256,117.003 -0.006,0.053 -0.011,0.105 -0.016,0.16 -0.202,2.055 -0.269,3.752 -0.259,5.125 0,0.033 -0.002,0.064 -0.002,0.098 0,0.074 0.005,0.146 0.005,0.219 0.003,0.217 0.009,0.426 0.016,0.625 0.453,28.311 23.53,51.125 51.948,51.125 28.418,0 51.495,-22.814 51.947,-51.125 0.008,-0.199 0.014,-0.408 0.017,-0.625 0,-0.072 0.005,-0.145 0.005,-0.219 0,-0.034 -0.002,-0.065 -0.002,-0.098 z"
         fill="#e78200"
         transform="matrix(-0.06945013,-0.24236092,-0.24236092,0.06945013,203.89592,306.41852)"
         data-uid="o_emi7n39al_11"
         style="fill:#3ea758;fill-opacity:1" />
      <path
         id="_V8dQ893Bn_Qj4OilDocC-"
         d="m 140.352,124.702 c 0.01,-1.373 -0.057,-3.07 -0.259,-5.125 -0.005,-0.055 -0.011,-0.107 -0.017,-0.16 C 138.578,104.558 129.961,71.157 91.548,5.36 L 88.377,0 86.949,2.414 c -39.883,67.75 -48.735,101.923 -50.256,117.003 -0.006,0.053 -0.011,0.105 -0.016,0.16 -0.202,2.055 -0.269,3.752 -0.259,5.125 0,0.033 -0.002,0.064 -0.002,0.098 0,0.074 0.005,0.146 0.005,0.219 0.003,0.217 0.009,0.426 0.016,0.625 0.453,28.311 23.53,51.125 51.948,51.125 28.418,0 51.495,-22.814 51.947,-51.125 0.008,-0.199 0.014,-0.408 0.017,-0.625 0,-0.072 0.005,-0.145 0.005,-0.219 0,-0.034 -0.002,-0.065 -0.002,-0.098 z"
         fill="#e78200"
         transform="matrix(0.23035721,-0.10260329,0.10260329,0.23035721,252.53677,318.3042)"
         data-uid="o_emi7n39al_12"
         style="fill:#3ea758;fill-opacity:1" />
      <path
         id="_Z2y_7EPldAxUeXYBlhKrD"
         d="m 140.352,124.702 c 0.01,-1.373 -0.057,-3.07 -0.259,-5.125 -0.005,-0.055 -0.011,-0.107 -0.017,-0.16 C 138.578,104.558 129.961,71.157 91.548,5.36 L 88.377,0 86.949,2.414 c -39.883,67.75 -48.735,101.923 -50.256,117.003 -0.006,0.053 -0.011,0.105 -0.016,0.16 -0.202,2.055 -0.269,3.752 -0.259,5.125 0,0.033 -0.002,0.064 -0.002,0.098 0,0.074 0.005,0.146 0.005,0.219 0.003,0.217 0.009,0.426 0.016,0.625 0.453,28.311 23.53,51.125 51.948,51.125 28.418,0 51.495,-22.814 51.947,-51.125 0.008,-0.199 0.014,-0.408 0.017,-0.625 0,-0.072 0.005,-0.145 0.005,-0.219 0,-0.034 -0.002,-0.065 -0.002,-0.098 z"
         fill="#e78200"
         transform="matrix(-0.23035721,0.10260329,-0.10260329,-0.23035721,260.961,205.08417)"
         data-uid="o_emi7n39al_13"
         style="fill:#3ea758;fill-opacity:1" />
    </g>
    <path
       id="_lCiMI0fFWCLR6hrJiuLZ9"
       fill="#000000"
       text="Logrocho"
       text-anchor="middle"
       font-size="100px"
       letter-spacing="0"
       side="left"
       offset="0.5"
       dx="0"
       dy="0"
       space="preserve"
       href=""
       font-family="Bungee"
       font-scale="contain"
       x="0"
       y="0"
       data-fl-textpath=""
       data-uid="o_emi7n39al_14"
       d="m 140.82665,274.3462 v 0 h -25.93949 q -0.96827,0 -1.40144,-0.43318 -0.43317,-0.43317 -0.43317,-1.40144 v 0 -33.02315 q 0,-0.96827 0.43317,-1.40145 0.43317,-0.43317 1.40144,-0.43317 v 0 h 7.89906 q 0.96827,0 1.40145,0.43317 0.43317,0.43318 0.43317,1.40145 v 0 25.22602 h 6.98175 v -8.25579 q 0,-0.96827 0.43317,-1.40145 0.43318,-0.43317 1.40145,-0.43317 v 0 h 7.38944 q 0.96827,0 1.40144,0.43317 0.43318,0.43318 0.43318,1.40145 v 0 16.05292 q 0,0.96827 -0.43318,1.40144 -0.43317,0.43318 -1.40144,0.43318 z m 38.73085,-27.00968 v 17.37793 q 0,2.34423 -0.68798,4.25529 -0.68798,1.91107 -2.44616,3.26155 -1.75817,1.35048 -4.84135,2.11491 -3.08318,0.76442 -7.82262,0.76442 v 0 q -4.73943,0 -7.84809,-0.76442 -3.10866,-0.76443 -4.86684,-2.11491 -1.75818,-1.35048 -2.44616,-3.26155 -0.68798,-1.91106 -0.68798,-4.25529 v 0 -17.37793 q 0,-2.34423 0.68798,-4.2553 0.68798,-1.91106 2.44616,-3.28702 1.75818,-1.37597 4.86684,-2.14039 3.10866,-0.76443 7.84809,-0.76443 v 0 q 4.73944,0 7.82262,0.76443 3.08318,0.76442 4.84135,2.14039 1.75818,1.37596 2.44616,3.28702 0.68798,1.91107 0.68798,4.2553 z m -20.07889,1.83462 v 13.70869 q 0,1.01923 0.76443,1.70721 0.76442,0.68798 3.51635,0.68798 v 0 q 2.75193,0 3.51636,-0.68798 0.76442,-0.68798 0.76442,-1.70721 v 0 -13.70869 q 0,-0.96827 -0.76442,-1.65625 -0.76443,-0.68798 -3.51636,-0.68798 v 0 q -2.75193,0 -3.51635,0.68798 -0.76443,0.68798 -0.76443,1.65625 z m 54.57994,25.17506 v 0 h -16.05293 q -6.3702,0 -9.45338,-2.54808 -3.08318,-2.54809 -3.08318,-7.8481 v 0 -15.90004 q 0,-5.30001 3.08318,-7.84809 3.08318,-2.54808 9.45338,-2.54808 v 0 h 12.74042 q 0.96827,0 1.40144,0.43317 0.43318,0.43318 0.43318,1.40145 v 0 6.16636 q 0,0.96827 -0.43318,1.40144 -0.43317,0.43318 -1.40144,0.43318 v 0 h -10.60003 q -1.57981,0 -2.34423,0.63702 -0.76443,0.63702 -0.76443,1.91106 v 0 12.17984 q 0,1.27404 0.58606,1.88558 0.58606,0.61154 1.75818,0.61154 v 0 h 4.94328 v -7.95002 q 0,-0.96827 0.43317,-1.40145 0.43318,-0.43317 1.40145,-0.43317 v 0 h 7.89906 q 0.96827,0 1.40144,0.43317 0.43317,0.43318 0.43317,1.40145 v 0 15.74715 q 0,0.96827 -0.43317,1.40144 -0.43317,0.43318 -1.40144,0.43318 z m 23.3914,-27.51929 h -3.82213 V 253.35 h 3.82213 q 1.325,0 1.78365,-0.68799 0.45866,-0.68798 0.45866,-1.70721 v 0 -1.7327 q 0,-1.01923 -0.45866,-1.70721 -0.45865,-0.68798 -1.78365,-0.68798 z m -5.65675,27.51929 v 0 h -7.84809 q -0.96827,0 -1.40145,-0.43318 -0.43317,-0.43317 -0.43317,-1.40144 v 0 -33.02315 q 0,-0.96827 0.43317,-1.40145 0.43318,-0.43317 1.40145,-0.43317 v 0 h 16.97023 q 5.7077,0 7.87357,2.36971 2.16587,2.36972 2.16587,6.14088 v 0 2.34424 q 0,2.14039 -0.63702,3.64376 -0.63702,1.50337 -2.21683,2.16587 v 0 q 2.75193,0.30577 4.45915,2.24231 1.70721,1.93654 1.70721,5.14713 v 0 10.80387 q 0,0.96827 -0.43317,1.40144 -0.43318,0.43318 -1.40145,0.43318 v 0 h -7.89905 q -0.96828,0 -1.40145,-0.43318 -0.43317,-0.43317 -0.43317,-1.40144 v 0 -7.79713 q 0,-1.12116 -0.43318,-1.65626 -0.43317,-0.5351 -1.50337,-0.5351 v 0 h -7.13463 v 9.98849 q 0,0.96827 -0.43317,1.40144 -0.43318,0.43318 -1.40145,0.43318 z m 59.0136,-27.00968 v 17.37793 q 0,2.34423 -0.68798,4.25529 -0.68799,1.91107 -2.44616,3.26155 -1.75818,1.35048 -4.84136,2.11491 -3.08318,0.76442 -7.82262,0.76442 v 0 q -4.73943,0 -7.84809,-0.76442 -3.10866,-0.76443 -4.86684,-2.11491 -1.75818,-1.35048 -2.44616,-3.26155 -0.68798,-1.91106 -0.68798,-4.25529 v 0 -17.37793 q 0,-2.34423 0.68798,-4.2553 0.68798,-1.91106 2.44616,-3.28702 1.75818,-1.37597 4.86684,-2.14039 3.10866,-0.76443 7.84809,-0.76443 v 0 q 4.73944,0 7.82262,0.76443 3.08318,0.76442 4.84136,2.14039 1.75817,1.37596 2.44616,3.28702 0.68798,1.91107 0.68798,4.2553 z m -20.07889,1.83462 v 13.70869 q 0,1.01923 0.76442,1.70721 0.76443,0.68798 3.51635,0.68798 v 0 q 2.75193,0 3.51636,-0.68798 0.76442,-0.68798 0.76442,-1.70721 v 0 -13.70869 q 0,-0.96827 -0.76442,-1.65625 -0.76443,-0.68798 -3.51636,-0.68798 v 0 q -2.75192,0 -3.51635,0.68798 -0.76442,0.68798 -0.76442,1.65625 z m 50.96165,25.17506 v 0 h -12.43464 q -6.37021,0 -9.45339,-2.54808 -3.08318,-2.54809 -3.08318,-7.8481 v 0 -15.84907 q 0,-5.30002 3.08318,-7.87358 3.08318,-2.57356 9.45339,-2.57356 v 0 h 12.43464 q 0.96827,0 1.40145,0.43317 0.43317,0.43318 0.43317,1.40145 v 0 6.16636 q 0,0.96827 -0.43317,1.40144 -0.43318,0.43318 -1.40145,0.43318 v 0 h -10.24329 q -1.57981,0 -2.34424,0.63702 -0.76442,0.63702 -0.76442,1.91106 v 0 12.12887 q 0,1.27404 0.76442,1.8601 0.76443,0.58606 2.34424,0.58606 v 0 h 10.24329 q 0.96827,0 1.40145,0.43318 0.43317,0.43317 0.43317,1.40144 v 0 6.06444 q 0,0.96827 -0.43317,1.40144 -0.43318,0.43318 -1.40145,0.43318 z m 17.32696,0 v 0 h -7.89905 q -0.96827,0 -1.40145,-0.43318 -0.43317,-0.43317 -0.43317,-1.40144 v 0 -33.02315 q 0,-0.96827 0.43317,-1.40145 0.43318,-0.43317 1.40145,-0.43317 v 0 h 7.89905 q 0.96827,0 1.40145,0.43317 0.43317,0.43318 0.43317,1.40145 v 0 11.05868 h 8.5106 v -11.05868 q 0,-0.96827 0.43317,-1.40145 0.43318,-0.43317 1.40145,-0.43317 v 0 h 7.89906 q 0.96827,0 1.40144,0.43317 0.43318,0.43318 0.43318,1.40145 v 0 33.02315 q 0,0.96827 -0.43318,1.40144 -0.43317,0.43318 -1.40144,0.43318 v 0 h -7.89906 q -0.96827,0 -1.40145,-0.43318 -0.43317,-0.43317 -0.43317,-1.40144 v 0 -11.31349 h -8.5106 v 11.31349 q 0,0.96827 -0.43317,1.40144 -0.43318,0.43318 -1.40145,0.43318 z m 60.03283,-27.00968 v 17.37793 q 0,2.34423 -0.68798,4.25529 -0.68798,1.91107 -2.44616,3.26155 -1.75818,1.35048 -4.84136,2.11491 -3.08318,0.76442 -7.82261,0.76442 v 0 q -4.73943,0 -7.84809,-0.76442 -3.10867,-0.76443 -4.86684,-2.11491 -1.75818,-1.35048 -2.44616,-3.26155 -0.68798,-1.91106 -0.68798,-4.25529 v 0 -17.37793 q 0,-2.34423 0.68798,-4.2553 0.68798,-1.91106 2.44616,-3.28702 1.75817,-1.37597 4.86684,-2.14039 3.10866,-0.76443 7.84809,-0.76443 v 0 q 4.73943,0 7.82261,0.76443 3.08318,0.76442 4.84136,2.14039 1.75818,1.37596 2.44616,3.28702 0.68798,1.91107 0.68798,4.2553 z m -20.07889,1.83462 v 13.70869 q 0,1.01923 0.76443,1.70721 0.76442,0.68798 3.51635,0.68798 v 0 q 2.75193,0 3.51635,-0.68798 0.76443,-0.68798 0.76443,-1.70721 v 0 -13.70869 q 0,-0.96827 -0.76443,-1.65625 -0.76442,-0.68798 -3.51635,-0.68798 v 0 q -2.75193,0 -3.51635,0.68798 -0.76443,0.68798 -0.76443,1.65625 z"
       style="fill:#000000;fill-opacity:1;stroke-width:0.509617" />
  </svg>
</svg>
